# xmcd
#
# Track frame offsets: 
#        150
#        18907
#        36137
#        51225
#        66632
#        82460
#        96725
#        116267
#        136537
#        155475
#        170017
#
# Disc length: 2494 seconds
#
# Revision: 3
# Processed by: cddbd v1.5.2PL0 Copyright (c) Steve Scherf et al.
# Submitted via: ExactAudioCopy v1.0b3
#
DISCID=9a09bc0b
DTITLE=Clarence 'Gatemouth' Brown - No Looking Back
DYEAR=1992
DGENRE=Blues
TTITLE0=Better Off With The Blues
TTITLE1=Digging New Ground
TTITLE2=Dope
TTITLE3=My Own Prison
TTITLE4=Stop Time
TTITLE5=C-Jam Blues
TTITLE6=Straighten Up
TTITLE7=The Peeper
TTITLE8=Alligator Eating Dog
TTITLE9=I Will Be Your Friend
TTITLE10=We're Outta Here
EXTD=YEAR: 1992
EXTT0=
EXTT1=
EXTT2=
EXTT3=
EXTT4=
EXTT5=
EXTT6=
EXTT7=
EXTT8=
EXTT9=
EXTT10=
PLAYORDER=
